<?xml version="1.0" encoding="UTF-8"?>
<!DOCTYPE svg PUBLIC "-//W3C//DTD SVG 1.1//EN" "http://www.w3.org/Graphics/SVG/1.1/DTD/svg11.dtd">
<!-- Creator: CorelDRAW 2017 -->
<svg xmlns="http://www.w3.org/2000/svg" xml:space="preserve" width="500px" height="500px" version="1.1" shape-rendering="geometricPrecision" text-rendering="geometricPrecision" image-rendering="optimizeQuality" fill-rule="evenodd" clip-rule="evenodd"
viewBox="0 0 500 500"
 xmlns:xlink="http://www.w3.org/1999/xlink">
 <g id="Layer_x0020_1">
  <metadata id="CorelCorpID_0Corel-Layer"/>
  <polygon fill="#55B03C" points="42.22,498.84 248.81,175.11 448.26,498.84 "/>
  <polygon fill="#55B03C" points="248.68,80.62 74.07,368.65 423.29,368.65 "/>
  <polygon fill="#55B03C" points="249.39,39.63 103.71,239.52 393.16,239.52 "/>
  <circle fill="#CF2CDE" cx="207.79" cy="130.06" r="23.24"/>
  <circle fill="#E62A20" cx="237.06" cy="192.9" r="23.24"/>
  <circle fill="#2E62E6" cx="317.55" cy="211.41" r="23.24"/>
  <circle fill="#2E62E6" cx="130.31" cy="323.33" r="23.24"/>
  <circle fill="#CF2CDE" cx="175.5" cy="269.09" r="23.24"/>
  <circle fill="#E62A20" cx="199.61" cy="380.58" r="23.24"/>
  <circle fill="#E62E81" cx="367.91" cy="329.79" r="23.24"/>
  <circle fill="#E62A20" cx="154.84" cy="464.08" r="23.24"/>
  <circle fill="#E62E81" cx="246.53" cy="470.97" r="23.24"/>
  <circle fill="#CF2CDE" cx="391.59" cy="460.64" r="23.24"/>
  <circle fill="#2E62E6" cx="305.5" cy="293.2" r="23.24"/>
  <circle fill="#E62E81" cx="246.1" cy="308.69" r="23.24"/>
  <path fill="none" stroke="#D5D27F" stroke-width="21.96" stroke-linecap="round" stroke-linejoin="round" stroke-miterlimit="22.9256" d="M264.43 61.59c1.14,30.56 2.29,61.13 -16.37,80.43 -18.65,19.3 -57.1,27.33 -95.56,35.37 20.66,25.97 41.31,51.95 74.02,67.94 32.72,16 77.49,22.02 122.27,28.04 -9.77,51.66 -19.53,103.32 -65.74,134.17 -46.2,30.84 -128.83,40.88 -211.46,50.92"/>
  <polygon fill="#4324E0" points="331.43,67.43 234.32,143.43 185.77,30.08 253,70.6 "/>
  <polygon fill="#5754F7" points="331.43,67.43 239.93,121.58 185.77,30.08 231.52,3.01 258.6,48.76 304.35,21.68 "/>
  <polygon fill="#4B31CC" points="185.77,30.08 239.93,121.58 234.32,143.43 185.59,61.08 "/>
  <polygon fill="#4B31CC" points="331.43,67.43 316.67,94.69 234.32,143.43 239.93,121.58 "/>
  <polygon fill="#D91C1C" points="323.39,375.64 333.6,407.29 366.86,407.23 339.92,426.72 350.25,458.33 323.39,438.73 296.52,458.33 306.86,426.72 279.92,407.23 313.17,407.29 "/>
 </g>
</svg>
