<svg width="452" height="452" viewBox="0 0 452 452" version="1.1" xmlns="http://www.w3.org/2000/svg" xmlns:xlink="http://www.w3.org/1999/xlink">
<g id="Canvas" transform="translate(-1131 -323)">
<g id="Group 2.1">
<g id="Ellipse">
<use xlink:href="#path0_fill" transform="translate(1298.83 436)" fill="#C3C2C4"/>
</g>
<g id="Rectangle">
<use xlink:href="#path1_fill" transform="translate(1294 532.429)" fill="#C3C2C4"/>
</g>
<g id="Rectangle 2">
<mask id="mask0_outline_ins">
<use xlink:href="#path2_fill" fill="white" transform="translate(1231 406)"/>
</mask>
<g mask="url(#mask0_outline_ins)">
<use xlink:href="#path3_stroke_2x" transform="translate(1231 406)" fill="#C3C2C4"/>
</g>
</g>
<g id="Mask Group">
<mask id="mask1_alpha" mask-type="alpha">
<g id="Vector">
<use xlink:href="#path4_fill" transform="translate(1294 436)" fill="#C4C4C4"/>
<use xlink:href="#path5_fill" transform="translate(1294 436)" fill="#C4C4C4"/>
</g>
</mask>
<mask id="mask2_alpha" mask-type="alpha">
<g id="Group">
<g id="Ellipse">
<use xlink:href="#path0_fill" transform="translate(1298.83 436)" fill="#C3C2C4"/>
</g>
<g id="Rectangle">
<use xlink:href="#path1_fill" transform="translate(1294 532.429)" fill="#C3C2C4"/>
</g>
<g id="Rectangle 2">
<mask id="mask3_outline_ins">
<use xlink:href="#path2_fill" fill="white" transform="translate(1231 406)"/>
</mask>
<g mask="url(#mask3_outline_ins)">
<use xlink:href="#path3_stroke_2x" transform="translate(1231 406)" fill="#C3C2C4"/>
</g>
</g>
</g>
</mask>
<g id="Line 2" mask="url(#mask2_alpha)">
<use xlink:href="#path6_stroke" transform="matrix(0.707107 0.707107 -0.707107 0.707107 1200 446)" fill="#A3A1A6"/>
</g>
</g>
<g id="Group">
<g id="Ellipse 2">
<mask id="mask4_outline_ins">
<use xlink:href="#path7_fill" fill="white" transform="translate(1131 323)"/>
</mask>
<g mask="url(#mask4_outline_ins)">
<use xlink:href="#path8_stroke_2x" transform="translate(1131 323)" fill="#88868A"/>
</g>
</g>
<g id="Line 2">
<use xlink:href="#path9_stroke" transform="matrix(0.707107 0.707107 -0.707107 0.707107 1203 420)" fill="#88868A"/>
</g>
</g>
</g>
</g>
<defs>
<path id="path0_fill" d="M 96.5217 48.2143C 96.5217 74.8423 74.9146 96.4286 48.2609 96.4286C 21.6071 96.4286 0 74.8423 0 48.2143C 0 21.5863 21.6071 0 48.2609 0C 74.9146 0 96.5217 21.5863 96.5217 48.2143Z"/>
<path id="path1_fill" d="M 0 55.5C 0 24.8482 24.8482 0 55.5 0L 55.5 0C 86.1518 0 111 24.8482 111 55.5L 111 128.571L 0 128.571L 0 55.5Z"/>
<path id="path2_fill" d="M 0 25C 0 11.1929 11.1929 0 25 0L 213 0C 226.807 0 238 11.1929 238 25L 238 260C 238 273.807 226.807 285 213 285L 25 285C 11.1929 285 0 273.807 0 260L 0 25Z"/>
<path id="path3_stroke_2x" d="M 25 15L 213 15L 213 -15L 25 -15L 25 15ZM 223 25L 223 260L 253 260L 253 25L 223 25ZM 213 270L 25 270L 25 300L 213 300L 213 270ZM 15 260L 15 25L -15 25L -15 260L 15 260ZM 25 270C 19.4772 270 15 265.523 15 260L -15 260C -15 282.091 2.90861 300 25 300L 25 270ZM 223 260C 223 265.523 218.523 270 213 270L 213 300C 235.091 300 253 282.091 253 260L 223 260ZM 213 15C 218.523 15 223 19.4772 223 25L 253 25C 253 2.90861 235.091 -15 213 -15L 213 15ZM 25 -15C 2.90861 -15 -15 2.90861 -15 25L 15 25C 15 19.4772 19.4772 15 25 15L 25 -15Z"/>
<path id="path4_fill" d="M 101.348 48.2143C 101.348 74.8423 79.7406 96.4286 53.0869 96.4286C 26.4332 96.4286 4.82604 74.8423 4.82604 48.2143C 4.82604 21.5863 26.4332 0 53.0869 0C 79.7406 0 101.348 21.5863 101.348 48.2143Z"/>
<path id="path5_fill" d="M 0 151.875C 0 121.253 24.8482 96.4286 55.5 96.4286C 86.1518 96.4286 111 121.253 111 151.875L 111 225L 0 225L 0 151.875Z"/>
<path id="path6_stroke" d="M 0 0L 427.001 0L 427.001 -50L 0 -50L 0 0Z"/>
<path id="path7_fill" d="M 452 226C 452 350.816 350.816 452 226 452C 101.184 452 0 350.816 0 226C 0 101.184 101.184 0 226 0C 350.816 0 452 101.184 452 226Z"/>
<path id="path8_stroke_2x" d="M 412 226C 412 328.725 328.725 412 226 412L 226 492C 372.908 492 492 372.908 492 226L 412 226ZM 226 412C 123.275 412 40 328.725 40 226L -40 226C -40 372.908 79.0923 492 226 492L 226 412ZM 40 226C 40 123.275 123.275 40 226 40L 226 -40C 79.0923 -40 -40 79.0923 -40 226L 40 226ZM 226 40C 328.725 40 412 123.275 412 226L 492 226C 492 79.0923 372.908 -40 226 -40L 226 40Z"/>
<path id="path9_stroke" d="M 0 0L 407.293 0L 407.293 -40L 0 -40L 0 0Z"/>
</defs>
</svg>
