<svg width="336" height="347" viewBox="0 0 336 347" version="1.1" xmlns="http://www.w3.org/2000/svg" xmlns:xlink="http://www.w3.org/1999/xlink">
<title>not found (square)2</title>
<desc>Created using Figma</desc>
<g id="Canvas" transform="translate(-2662 -1192)">
<g id="not found (square)2">
<g id="Group">
<g id="Rectangle">
<g id="Vector">
<use xlink:href="#path0_fill" transform="translate(2770.03 1225.01)" fill="#C3C2C4"/>
</g>
<g id="Vector">
<use xlink:href="#path1_fill" transform="translate(2761.03 1342.04)" fill="#C3C2C4"/>
</g>
<mask id="mask0_alpha" mask-type="alpha">
<g id="mask0 alpha">
<g id="mask">
<g id="Vector">
<g id="Vector">
<use xlink:href="#path2_fill" transform="translate(2682.01 1192)" fill="#FFFFFF"/>
</g>
</g>
</g>
</g>
</mask>
<g id="Vector" mask="url(#mask0_alpha)">
<use xlink:href="#path3_fill" transform="translate(2664 1173.99)" fill="#C3C2C4"/>
</g>
</g>
<mask id="mask1_alpha" mask-type="alpha">
<g id="mask1 alpha">
<g id="Vector">
<use xlink:href="#path4_fill" transform="translate(2769.03 1225.01)" fill="#C3C2C4"/>
</g>
<g id="Vector">
<use xlink:href="#path5_fill" transform="translate(2761.03 1342.04)" fill="#C3C2C4"/>
</g>
<mask id="mask2_alpha" mask-type="alpha">
<g id="mask2 alpha">
<g id="Vector">
<use xlink:href="#path2_fill" transform="translate(2682.01 1192)" fill="#FFFFFF"/>
</g>
</g>
</mask>
<g id="Vector" mask="url(#mask2_alpha)">
<use xlink:href="#path6_fill" transform="translate(2664 1173.99)" fill="#C3C2C4"/>
</g>
</g>
</mask>
<g id="Line" mask="url(#mask1_alpha)">
<g id="Vector">
<use xlink:href="#path7_fill" transform="matrix(0.70886 0.70535 -0.70886 0.70535 2676 1207)" fill="#A5A3A8"/>
</g>
</g>
</g>
<g id="Vector">
<use xlink:href="#path8_fill" transform="translate(2662 1198)" fill="#8D8B8F"/>
<use xlink:href="#path8_fill" transform="translate(2662 1198)" fill="#737599"/>
</g>
</g>
</g>
<defs>
<path id="path0_fill" d="M 118.033 59.0174C 118.033 91.4383 91.7211 117.535 59.0165 117.535C 26.3114 117.535 0 91.4383 0 59.0174C 0 26.5967 26.3114 0 59.0165 0C 91.7211 0 118.033 26.5967 118.033 59.0174Z"/>
<path id="path1_fill" d="M 0 67.0197C 0 29.8179 30.4533 0 68.0191 0C 105.585 0 136.038 29.8179 136.038 67.0197L 136.038 156.046L 0.000244209 156.046L 0 67.0197Z"/>
<path id="path2_fill" d="M 0 30.4387C 0 13.6278 13.734 0 30.6758 0L 261.357 0C 278.299 0 292.033 13.6278 292.033 30.4387L 292.033 316.561C 292.033 333.372 278.299 347 261.357 347L 30.6758 347C 13.734 347 0 333.372 0 316.561L 0 30.4387Z"/>
<path id="path3_fill" d="M 49.0134 36.0106L 279.078 36.0106L 279.123 0L 49.0137 0L 49.0134 36.0106ZM 292.082 48.0141L 292.082 334.098L 328.092 334.463L 328.092 48.6492L 292.082 48.0141ZM 279.078 347.102L 49.0137 347.102L 49.0137 383.113L 279.078 382.113L 279.078 347.102ZM 37.0103 335.099L 37.0103 48.0141L 0 48.0141L 0 335.099L 37.0103 335.099ZM 49.0137 347.102C 42.2525 347.102 37.0103 341.816 37.0103 335.099L 0 335.099C 0 361.967 21.9688 383.113 49.0137 383.113L 49.0137 347.102ZM 292.082 334.098C 292.082 340.816 285.839 347.102 279.078 347.102L 279.078 382.113C 306.121 382.113 328.092 361.331 328.092 334.463L 292.082 334.098ZM 279.078 36.0106C 285.839 36.0106 292.082 41.2972 292.082 48.0141L 328.092 48.6492C 328.092 21.781 306.167 0 279.123 0L 279.078 36.0106ZM 49.0137 0C 21.9688 0 0 21.1459 0 48.0141L 37.0103 48.0141C 37.0103 41.2972 42.2522 36.0106 49.0134 36.0106L 49.0137 0Z"/>
<path id="path4_fill" d="M 118.435 58.703C 118.435 91.1239 91.9223 117.407 59.2177 117.407C 26.5126 117.407 0 91.1239 0 58.703C 0 26.2823 26.5126 0 59.2177 0C 91.9223 0 118.435 26.2823 118.435 58.703Z"/>
<path id="path5_fill" d="M 0 67.5737C 0 30.2538 30.4895 0 68.1002 0C 105.711 0 136.201 30.2538 136.201 67.5737L 136.201 156.541L 0 156.541L 0 67.5737Z"/>
<path id="path6_fill" d="M 49.0134 36.0106L 279.078 36.0106L 279.123 0L 49.0137 0L 49.0134 36.0106ZM 292.082 48.0141L 292.082 334.098L 328.092 334.463L 328.092 48.6492L 292.082 48.0141ZM 279.078 347.102L 49.0137 347.102L 49.0137 383.113L 279.078 382.113L 279.078 347.102ZM 37.0103 335.099L 37.0103 48.0141L 0 48.0141L 0 335.099L 37.0103 335.099ZM 49.0137 347.102C 42.2525 347.102 37.0103 341.816 37.0103 335.099L 0 335.099C 0 361.967 21.9688 383.113 49.0137 383.113L 49.0137 347.102ZM 292.082 334.098C 292.082 340.816 285.839 347.102 279.078 347.102L 279.078 382.113C 306.121 382.113 328.092 361.331 328.092 334.463L 292.082 334.098ZM 279.078 36.0106C 285.839 36.0106 292.082 41.2972 292.082 48.0141L 328.092 48.6492C 328.092 21.781 306.167 0 279.123 0L 279.078 36.0106ZM 49.0137 0C 21.9688 0 0 21.1459 0 48.0141L 37.0103 48.0141C 37.0103 41.2972 42.2522 36.0106 49.0134 36.0106L 49.0137 0Z"/>
<path id="path7_fill" d="M 0.0847283 34.0661L 522.08 33.9512L 521.996 0L 0 0.115007L 0.0847283 34.0661Z"/>
<path id="path8_fill" d="M 28.9613 4.95467C 22.3552 -1.65154 11.5607 -1.65157 4.95458 4.95467C -1.65153 11.5609 -1.65153 22.3555 4.95458 28.9617L 28.9613 4.95467ZM 307.039 331.051C 313.645 337.657 324.439 337.657 331.045 331.051C 337.651 324.444 337.652 313.65 331.045 307.044L 307.039 331.051ZM 4.95458 28.9617L 307.039 331.051L 331.045 307.044L 28.9613 4.95467L 4.95458 28.9617Z"/>
</defs>
</svg>
